<?xml version="1.0" encoding="UTF-8" standalone="no"?>
<!DOCTYPE svg PUBLIC "-//W3C//DTD SVG 1.1//EN"
 "http://www.w3.org/Graphics/SVG/1.1/DTD/svg11.dtd">
<!-- Generated by graphviz version 2.36.0 (20140111.2315)
 -->
<!-- Title: graphForClustersContents Pages: 1 -->
<svg width="3530pt" height="175pt"
 viewBox="0.00 0.00 3530.00 175.00" xmlns="http://www.w3.org/2000/svg" xmlns:xlink="http://www.w3.org/1999/xlink">
<g id="graph0" class="graph" transform="scale(1 1) rotate(0) translate(4 171)">
<title>graphForClustersContents</title>
<polygon fill="white" stroke="none" points="-4,4 -4,-171 3526,-171 3526,4 -4,4"/>
<!-- node14 -->
<g id="node1" class="node"><title>node14</title>
<ellipse fill="#ffffcc" stroke="black" cx="253" cy="-130" rx="253.289" ry="37.4533"/>
<text text-anchor="middle" x="253" y="-141.3" font-family="Times,serif" font-size="14.00">Remove</text>
<text text-anchor="middle" x="253" y="-126.3" font-family="Times,serif" font-size="14.00">(HERAKLES_HUMAN1 BLUE_CUBE PLACEMAT_RED )</text>
<text text-anchor="middle" x="253" y="-111.3" font-family="Times,serif" font-size="14.00">[0, 6]</text>
</g>
<!-- node15 -->
<g id="node3" class="node"><title>node15</title>
<ellipse fill="#ffffcc" stroke="black" cx="760" cy="-130" rx="217.578" ry="37.4533"/>
<text text-anchor="middle" x="760" y="-141.3" font-family="Times,serif" font-size="14.00">PlaceSupport</text>
<text text-anchor="middle" x="760" y="-126.3" font-family="Times,serif" font-size="14.00">(HERAKLES_HUMAN1 BLUE_CUBE TABLE_4 )</text>
<text text-anchor="middle" x="760" y="-111.3" font-family="Times,serif" font-size="14.00">[6, 12]</text>
</g>
<!-- node14&#45;&gt;node15 -->
<g id="edge1" class="edge"><title>node14&#45;&gt;node15</title>
<path fill="none" stroke="#9a32cd" d="M506.5,-130C514.915,-130 523.329,-130 531.706,-130"/>
<polygon fill="#9a32cd" stroke="#9a32cd" points="541.904,-130 531.904,-134.5 536.904,-130 531.904,-130 531.904,-130 531.904,-130 536.904,-130 531.904,-125.5 541.904,-130 541.904,-130"/>
</g>
<!-- node32 -->
<g id="node2" class="node"><title>node32</title>
<ellipse fill="#cce6ff" stroke="black" cx="253" cy="-37" rx="217.578" ry="37.4533"/>
<text text-anchor="middle" x="253" y="-48.3" font-family="Times,serif" font-size="14.00">Pick</text>
<text text-anchor="middle" x="253" y="-33.3" font-family="Times,serif" font-size="14.00">(PR2_ROBOT GREEN_CUBE PLACEMAT_RED )</text>
<text text-anchor="middle" x="253" y="-18.3" font-family="Times,serif" font-size="14.00">[0, 6]</text>
</g>
<!-- node33 -->
<g id="node7" class="node"><title>node33</title>
<ellipse fill="#cce6ff" stroke="black" cx="2558" cy="-37" rx="291.156" ry="37.4533"/>
<text text-anchor="middle" x="2558" y="-48.3" font-family="Times,serif" font-size="14.00">PlaceOn</text>
<text text-anchor="middle" x="2558" y="-33.3" font-family="Times,serif" font-size="14.00">(PR2_ROBOT GREEN_CUBE YELLOW_CUBE PLACEMAT_RED )</text>
<text text-anchor="middle" x="2558" y="-18.3" font-family="Times,serif" font-size="14.00">[24, 30]</text>
</g>
<!-- node32&#45;&gt;node33 -->
<g id="edge6" class="edge"><title>node32&#45;&gt;node33</title>
<path fill="none" stroke="#9a32cd" d="M470.92,-37C884.234,-37 1785.31,-37 2256.42,-37"/>
<polygon fill="#9a32cd" stroke="#9a32cd" points="2266.43,-37 2256.43,-41.5001 2261.43,-37 2256.43,-37.0001 2256.43,-37.0001 2256.43,-37.0001 2261.43,-37 2256.43,-32.5001 2266.43,-37 2266.43,-37"/>
</g>
<!-- node22 -->
<g id="node4" class="node"><title>node22</title>
<ellipse fill="#ffffcc" stroke="black" cx="1283" cy="-130" rx="268.901" ry="37.4533"/>
<text text-anchor="middle" x="1283" y="-141.3" font-family="Times,serif" font-size="14.00">Pick</text>
<text text-anchor="middle" x="1283" y="-126.3" font-family="Times,serif" font-size="14.00">(HERAKLES_HUMAN1 YELLOW_CUBE PLACEMAT_RED )</text>
<text text-anchor="middle" x="1283" y="-111.3" font-family="Times,serif" font-size="14.00">[12, 18]</text>
</g>
<!-- node15&#45;&gt;node22 -->
<g id="edge2" class="edge"><title>node15&#45;&gt;node22</title>
<path fill="none" stroke="#9a32cd" d="M977.801,-130C986.436,-130 995.138,-130 1003.87,-130"/>
<polygon fill="#9a32cd" stroke="#9a32cd" points="1014.12,-130 1004.12,-134.5 1009.12,-130 1004.12,-130 1004.12,-130 1004.12,-130 1009.12,-130 1004.12,-125.5 1014.12,-130 1014.12,-130"/>
</g>
<!-- node23 -->
<g id="node5" class="node"><title>node23</title>
<ellipse fill="#ffffcc" stroke="black" cx="1909" cy="-130" rx="321.053" ry="37.4533"/>
<text text-anchor="middle" x="1909" y="-141.3" font-family="Times,serif" font-size="14.00">PlaceOn</text>
<text text-anchor="middle" x="1909" y="-126.3" font-family="Times,serif" font-size="14.00">(HERAKLES_HUMAN1 YELLOW_CUBE RED_CUBE PLACEMAT_RED )</text>
<text text-anchor="middle" x="1909" y="-111.3" font-family="Times,serif" font-size="14.00">[18, 24]</text>
</g>
<!-- node22&#45;&gt;node23 -->
<g id="edge3" class="edge"><title>node22&#45;&gt;node23</title>
<path fill="none" stroke="#9a32cd" d="M1551.8,-130C1560.41,-130 1569.07,-130 1577.75,-130"/>
<polygon fill="#9a32cd" stroke="#9a32cd" points="1587.94,-130 1577.94,-134.5 1582.94,-130 1577.94,-130 1577.94,-130 1577.94,-130 1582.94,-130 1577.94,-125.5 1587.94,-130 1587.94,-130"/>
</g>
<!-- node39 -->
<g id="node6" class="node"><title>node39</title>
<ellipse fill="#ffffcc" stroke="black" cx="2558" cy="-130" rx="253.289" ry="37.4533"/>
<text text-anchor="middle" x="2558" y="-141.3" font-family="Times,serif" font-size="14.00">Pick</text>
<text text-anchor="middle" x="2558" y="-126.3" font-family="Times,serif" font-size="14.00">(HERAKLES_HUMAN1 BLUE_CUBE PLACEMAT_RED )</text>
<text text-anchor="middle" x="2558" y="-111.3" font-family="Times,serif" font-size="14.00">[24, 30]</text>
</g>
<!-- node23&#45;&gt;node39 -->
<g id="edge5" class="edge"><title>node23&#45;&gt;node39</title>
<path fill="none" stroke="#9a32cd" d="M2230.18,-130C2251.74,-130 2273.31,-130 2294.52,-130"/>
<polygon fill="#9a32cd" stroke="#9a32cd" points="2304.57,-130 2294.57,-134.5 2299.57,-130 2294.57,-130 2294.57,-130 2294.57,-130 2299.57,-130 2294.57,-125.5 2304.57,-130 2304.57,-130"/>
</g>
<!-- node23&#45;&gt;node33 -->
<g id="edge4" class="edge"><title>node23&#45;&gt;node33</title>
<path fill="none" stroke="#9a32cd" d="M2111.61,-101.02C2188.54,-89.9623 2276.24,-77.3559 2353.36,-66.2709"/>
<polygon fill="#9a32cd" stroke="#9a32cd" points="2363.68,-64.7873 2354.43,-70.6644 2358.74,-65.4987 2353.79,-66.2101 2353.79,-66.2101 2353.79,-66.2101 2358.74,-65.4987 2353.15,-61.7559 2363.68,-64.7873 2363.68,-64.7873"/>
</g>
<!-- node40 -->
<g id="node8" class="node"><title>node40</title>
<ellipse fill="#ffffcc" stroke="black" cx="3204" cy="-83" rx="317.482" ry="37.4533"/>
<text text-anchor="middle" x="3204" y="-94.3" font-family="Times,serif" font-size="14.00">PlaceOn</text>
<text text-anchor="middle" x="3204" y="-79.3" font-family="Times,serif" font-size="14.00">(HERAKLES_HUMAN1 BLUE_CUBE GREEN_CUBE PLACEMAT_RED )</text>
<text text-anchor="middle" x="3204" y="-64.3" font-family="Times,serif" font-size="14.00">[30, 36]</text>
</g>
<!-- node39&#45;&gt;node40 -->
<g id="edge8" class="edge"><title>node39&#45;&gt;node40</title>
<path fill="none" stroke="#9a32cd" d="M2785.14,-113.496C2829.97,-110.224 2877.52,-106.754 2923.86,-103.372"/>
<polygon fill="#9a32cd" stroke="#9a32cd" points="2934.04,-102.629 2924.4,-107.845 2929.06,-102.993 2924.07,-103.357 2924.07,-103.357 2924.07,-103.357 2929.06,-102.993 2923.74,-98.8688 2934.04,-102.629 2934.04,-102.629"/>
</g>
<!-- node33&#45;&gt;node40 -->
<g id="edge7" class="edge"><title>node33&#45;&gt;node40</title>
<path fill="none" stroke="#9a32cd" d="M2812.6,-55.1144C2848.56,-57.6825 2885.7,-60.3359 2922.13,-62.9382"/>
<polygon fill="#9a32cd" stroke="#9a32cd" points="2932.39,-63.6707 2922.09,-67.4467 2927.4,-63.3144 2922.42,-62.9581 2922.42,-62.9581 2922.42,-62.9581 2927.4,-63.3144 2922.74,-58.4696 2932.39,-63.6707 2932.39,-63.6707"/>
</g>
</g>
</svg>
